<svg width="22" height="16" viewBox="0 0 22 16" fill="none" xmlns="http://www.w3.org/2000/svg">
<path d="M2.92795 16C2.37245 16 1.89708 15.8043 1.50184 15.413C1.10592 15.021 0.907959 14.55 0.907959 14V2C0.907959 1.45 1.10592 0.979333 1.50184 0.588C1.89708 0.196 2.37245 0 2.92795 0H19.0879C19.6434 0 20.1191 0.196 20.515 0.588C20.9102 0.979333 21.1079 1.45 21.1079 2V14C21.1079 14.55 20.9102 15.021 20.515 15.413C20.1191 15.8043 19.6434 16 19.0879 16H2.92795ZM11.0079 8.825C11.0921 8.825 11.1803 8.81233 11.2725 8.787C11.3654 8.76233 11.454 8.725 11.5382 8.675L18.6839 4.25C18.8185 4.16667 18.9195 4.06267 18.9869 3.938C19.0542 3.81267 19.0879 3.675 19.0879 3.525C19.0879 3.19167 18.9448 2.94167 18.6586 2.775C18.3725 2.60833 18.0779 2.61667 17.7749 2.8L11.0079 7L4.24094 2.8C3.93794 2.61667 3.64336 2.61233 3.3572 2.787C3.07103 2.96233 2.92795 3.20833 2.92795 3.525C2.92795 3.69167 2.96161 3.83733 3.02895 3.962C3.09628 4.08733 3.19728 4.18333 3.33195 4.25L10.4777 8.675C10.5618 8.725 10.6504 8.76233 10.7433 8.787C10.8355 8.81233 10.9237 8.825 11.0079 8.825Z" fill="#001C6C"/>
</svg>
