<svg width="404" height="268" viewBox="0 0 404 268" fill="none" xmlns="http://www.w3.org/2000/svg">
<g clip-path="url(#clip0_1_1550)">
<path d="M403.162 142.438C403.162 196.646 368.533 242.834 320.031 260.409C312.652 263.088 305.036 265.071 297.282 266.333C275.952 269.804 254.082 267.834 233.731 260.607C184.922 243.177 150.04 196.833 150.063 142.411C150.063 73.0932 206.723 16.8756 276.612 16.8756C303.026 16.8375 328.784 25.0365 350.245 40.3139C382.285 63.0901 403.162 100.344 403.162 142.438Z" fill="#E5E5E5"/>
<path d="M320.031 260.409C312.652 263.088 305.036 265.071 297.282 266.333C275.952 269.804 254.082 267.834 233.731 260.607L239.576 237.34L239.928 235.943L251.855 235.989L311.77 236.202L312.537 238.451L320.031 260.409Z" fill="#2F2E41"/>
<path d="M110.1 0H0.173828V123.414H110.1V0Z" fill="#E6E6E6"/>
<path d="M107.948 2.61084H2.13379V120.804H107.948V2.61084Z" fill="white"/>
<path d="M55.1369 116.601C58.4127 116.601 61.0682 113.966 61.0682 110.716C61.0682 107.466 58.4127 104.831 55.1369 104.831C51.8611 104.831 49.2056 107.466 49.2056 110.716C49.2056 113.966 51.8611 116.601 55.1369 116.601Z" fill="#E6E6E6"/>
<path d="M54.1349 44.4487H20.0674V47.9066H54.1349V44.4487Z" fill="#E6E6E6"/>
<path d="M71.4844 54.8105H20.0674V58.2684H71.4844V54.8105Z" fill="#001C6C"/>
<path d="M66.4374 65.2373H20.0674V68.6952H66.4374V65.2373Z" fill="#E6E6E6"/>
<path d="M91.6725 75.3892H20.0674V78.8471H91.6725V75.3892Z" fill="#001C6C"/>
<path d="M79.1681 85.0571H20.8115V88.515H79.1681V85.0571Z" fill="#E6E6E6"/>
<path d="M156.485 200.82C156.903 201.246 157.287 201.704 157.632 202.189L211.362 200.885L217.63 189.521L236.152 196.665L227.025 217.853C226.288 219.565 225.011 220.993 223.386 221.923C221.761 222.854 219.876 223.236 218.013 223.013L157.308 215.737C155.876 217.535 153.926 218.859 151.717 219.531C149.509 220.203 147.146 220.193 144.944 219.5C142.742 218.808 140.805 217.466 139.389 215.655C137.974 213.843 137.148 211.647 137.022 209.358C136.895 207.07 137.474 204.797 138.681 202.843C139.888 200.888 141.666 199.345 143.779 198.418C145.892 197.49 148.239 197.223 150.508 197.652C152.778 198.081 154.862 199.185 156.483 200.817L156.485 200.82Z" fill="#9F616A"/>
<path d="M228.803 135.927L253.947 127.751L261.332 117.702L297.271 119.812L302.547 131.539L321.711 140.523L318.766 194.79L313.727 245.577C287.82 232.266 239.47 242.414 239.047 242.58L228.803 135.927Z" fill="#001C6C"/>
<path d="M234.178 209.381L208.602 199.228L208.71 198.776C208.82 198.319 219.706 153.187 221.151 145.934C222.657 138.378 228.158 136.288 228.391 136.204L228.562 136.141L238.684 139.198L243.129 173.853L234.178 209.381Z" fill="#001C6C"/>
<path d="M289.401 243.344C290.001 243.33 290.6 243.363 291.195 243.442L326.762 203.463L322.625 191.179L340.498 182.56L349.953 203.606C350.717 205.306 350.904 207.207 350.487 209.021C350.07 210.836 349.07 212.468 347.639 213.671L300.988 252.89C301.344 255.154 300.996 257.473 299.991 259.537C298.986 261.6 297.371 263.312 295.362 264.443C293.353 265.574 291.044 266.072 288.743 265.869C286.442 265.667 284.258 264.775 282.481 263.31C280.703 261.846 279.417 259.88 278.794 257.673C278.17 255.466 278.239 253.123 278.99 250.955C279.741 248.788 281.14 246.899 283 245.539C284.859 244.18 287.092 243.414 289.401 243.344Z" fill="#9F616A"/>
<path d="M323.923 207.355L309.086 172.728L314.873 148.608L321.108 140.793C321.565 140.599 322.057 140.501 322.554 140.506C323.05 140.511 323.541 140.617 323.994 140.819C326.294 141.738 328.25 144.552 329.814 149.184L343.718 188.481L323.923 207.355Z" fill="#001C6C"/>
<path d="M246.946 104.87V78.765C246.931 74.1711 247.828 69.6193 249.586 65.3693C251.343 61.1194 253.927 57.2545 257.19 53.9954C260.453 50.7363 264.331 48.1469 268.603 46.3748C272.875 44.6028 277.456 43.6829 282.086 43.6677C286.716 43.6525 291.304 44.5422 295.587 46.2861C299.871 48.03 303.766 50.594 307.05 53.8315C310.335 57.0691 312.945 60.9169 314.731 65.1552C316.517 69.3935 317.444 73.9394 317.459 78.5332C317.46 78.6104 317.46 78.6877 317.459 78.765V104.87C317.458 106.116 316.959 107.311 316.071 108.192C315.183 109.073 313.979 109.568 312.723 109.57H251.682C250.427 109.568 249.223 109.073 248.335 108.192C247.447 107.311 246.948 106.116 246.946 104.87Z" fill="#2F2E41"/>
<path d="M274.958 108.961C289.234 108.961 300.807 97.4789 300.807 83.3145C300.807 69.15 289.234 57.6675 274.958 57.6675C260.682 57.6675 249.109 69.15 249.109 83.3145C249.109 97.4789 260.682 108.961 274.958 108.961Z" fill="#9F616A"/>
<path d="M238.606 80.8536C238.614 73.5171 241.555 66.4834 246.784 61.2957C252.012 56.108 259.101 53.1899 266.496 53.1816H271.758C279.152 53.1899 286.241 56.108 291.47 61.2957C296.698 66.4834 299.639 73.5171 299.647 80.8536V81.3756H288.526L284.733 70.8361L283.975 81.3756H278.228L276.314 76.0587L275.931 81.3756H238.606V80.8536Z" fill="#2F2E41"/>
<path d="M272.414 112.505C271.892 111.804 271.581 110.97 271.515 110.101C271.449 109.231 271.633 108.361 272.044 107.59C277.62 97.0663 285.427 77.6206 275.064 65.6282L274.321 64.7676H304.408V109.586L277.076 114.37C276.8 114.419 276.519 114.443 276.239 114.444C275.492 114.444 274.757 114.268 274.092 113.931C273.428 113.595 272.854 113.106 272.416 112.506L272.414 112.505Z" fill="#2F2E41"/>
<path d="M55.0415 9.61182C52.5469 9.61169 50.1082 10.3455 48.0339 11.7206C45.9596 13.0956 44.3429 15.05 43.3881 17.3368C42.4333 19.6235 42.1834 22.1397 42.67 24.5674C43.1565 26.995 44.3577 29.225 46.1216 30.9753C47.8855 32.7256 50.1328 33.9176 52.5795 34.4006C55.0262 34.8836 57.5623 34.6359 59.8671 33.6888C62.1719 32.7418 64.1419 31.1378 65.5279 29.0799C66.914 27.0219 67.6538 24.6023 67.654 22.1272V22.1265C67.654 20.4831 67.3277 18.8557 66.6939 17.3373C66.06 15.819 65.1309 14.4394 63.9597 13.2773C62.7884 12.1152 61.398 11.1934 59.8677 10.5644C58.3374 9.93552 56.6972 9.61181 55.0409 9.61182H55.0415ZM55.0415 13.3659C55.7898 13.3659 56.5213 13.5861 57.1436 13.9986C57.7658 14.4111 58.2507 14.9974 58.5371 15.6833C58.8235 16.3693 58.8984 17.1241 58.7524 17.8523C58.6064 18.5806 58.2461 19.2495 57.7169 19.7745C57.1878 20.2995 56.5136 20.657 55.7797 20.8019C55.0457 20.9468 54.285 20.8724 53.5936 20.5883C52.9022 20.3042 52.3113 19.823 51.8956 19.2056C51.4798 18.5883 51.2579 17.8625 51.2579 17.12C51.2579 16.1243 51.6565 15.1695 52.3661 14.4654C53.0757 13.7614 54.038 13.3659 55.0415 13.3659ZM55.0415 31.4397C53.5467 31.4329 52.0761 31.0644 50.7573 30.3661C49.4386 29.6678 48.3114 28.6608 47.4736 27.4325C47.5344 24.9295 52.5189 23.5518 55.0415 23.5518C57.5641 23.5518 62.5486 24.9295 62.6094 27.4325C61.7707 28.6599 60.6433 29.6662 59.3247 30.3644C58.0062 31.0626 56.5361 31.4317 55.0415 31.4397Z" fill="#001C6C"/>
<path d="M55.1877 112.972C60.3839 103.524 72.8318 97.5406 83.0144 102.934C87.5978 105.361 91.2413 109.654 92.3979 114.729C93.7401 120.624 90.9119 126.245 87.9924 131.197C86.4079 133.885 84.6715 136.519 83.3599 139.354C82.002 142.291 81.0314 145.684 82.0538 148.878C82.9742 151.756 85.282 153.849 87.8091 155.387C90.5983 157.021 93.5651 158.336 96.6526 159.306C103.008 161.404 109.712 162.264 116.396 161.841C119.718 161.617 123.012 161.089 126.236 160.263C129.666 159.395 133.031 158.296 136.467 157.447C142.202 156.033 148.742 155.331 154.18 158.17C159.464 160.929 161.828 166.7 162.56 172.314C163.91 182.681 159.767 193.439 152.288 200.699C148.699 204.182 144.183 207.06 139.265 208.237C134.973 209.264 129.462 209.198 126.047 206.015C122.236 202.463 123.133 196.766 126.159 193.018C130.023 188.235 136.568 187.087 142.409 186.97C149.053 186.838 155.691 187.819 162.332 187.209C165.573 186.959 168.753 186.198 171.753 184.954C174.39 183.803 176.796 182.188 178.853 180.187C182.953 176.235 185.718 170.971 187.093 165.497C188.748 158.915 188.387 151.996 187.102 145.385C186.417 141.975 185.535 138.608 184.461 135.299C184.017 133.903 181.795 134.5 182.242 135.906C186.199 148.357 188.406 162.754 180.76 174.315C177.595 179.217 172.666 182.738 166.976 184.159C160.358 185.791 153.414 184.985 146.686 184.742C140.289 184.511 133.265 184.76 127.781 188.457C123.282 191.489 120.136 197.257 121.495 202.701C122.807 207.952 127.892 210.616 132.979 211.026C138.316 211.457 143.568 209.68 148.05 206.901C157.373 201.12 163.573 190.953 164.87 180.175C165.546 174.558 164.858 168.508 162.291 163.41C160.938 160.651 158.833 158.323 156.214 156.691C153.603 155.102 150.586 154.32 147.557 154.044C140.674 153.415 134.061 155.759 127.532 157.553C124.196 158.513 120.778 159.16 117.32 159.487C113.965 159.763 110.59 159.708 107.246 159.324C103.927 158.935 100.656 158.215 97.4832 157.174C94.3741 156.221 91.3972 154.885 88.6217 153.199C86.1732 151.646 84.0556 149.421 83.9352 146.388C83.8044 143.101 85.4752 140.025 87.0644 137.253C90.204 131.778 94.0821 126.422 94.9009 120.012C95.618 114.404 93.3439 108.878 89.417 104.878C87.449 102.848 85.0797 101.244 82.4576 100.164C79.8354 99.0849 77.0169 98.5544 74.1786 98.606C68.3523 98.7715 62.7738 101.285 58.4884 105.146C56.3629 107.062 54.5744 109.316 53.1963 111.816C52.4865 113.106 54.4725 114.26 55.1831 112.968L55.1877 112.972Z" fill="#3F3D56"/>
</g>
<defs>
<clipPath id="clip0_1_1550">
<rect width="402.988" height="268" fill="white" transform="translate(0.173828)"/>
</clipPath>
</defs>
</svg>
