<svg width="21" height="20" viewBox="0 0 21 20" fill="none" xmlns="http://www.w3.org/2000/svg">
<path d="M5.92047 0H14.4044C17.6364 0 20.2624 2.6 20.2624 5.8V14.2C20.2624 15.7383 19.6452 17.2135 18.5466 18.3012C17.4481 19.3889 15.9581 20 14.4044 20H5.92047C2.68849 20 0.0625 17.4 0.0625 14.2V5.8C0.0625 4.26174 0.679677 2.78649 1.77826 1.69878C2.87684 0.61107 4.36684 0 5.92047 0ZM5.71847 2C4.75415 2 3.82932 2.37928 3.14744 3.05442C2.46556 3.72955 2.08249 4.64522 2.08249 5.6V14.4C2.08249 16.39 3.70858 18 5.71847 18H14.6064C15.5707 18 16.4956 17.6207 17.1775 16.9456C17.8593 16.2705 18.2424 15.3548 18.2424 14.4V5.6C18.2424 3.61 16.6163 2 14.6064 2H5.71847ZM15.4649 3.5C15.7998 3.5 16.1209 3.6317 16.3576 3.86612C16.5944 4.10054 16.7274 4.41848 16.7274 4.75C16.7274 5.08152 16.5944 5.39946 16.3576 5.63388C16.1209 5.8683 15.7998 6 15.4649 6C15.1301 6 14.809 5.8683 14.5722 5.63388C14.3354 5.39946 14.2024 5.08152 14.2024 4.75C14.2024 4.41848 14.3354 4.10054 14.5722 3.86612C14.809 3.6317 15.1301 3.5 15.4649 3.5ZM10.1624 5C11.5018 5 12.7863 5.52678 13.7333 6.46447C14.6804 7.40215 15.2124 8.67392 15.2124 10C15.2124 11.3261 14.6804 12.5979 13.7333 13.5355C12.7863 14.4732 11.5018 15 10.1624 15C8.82311 15 7.53863 14.4732 6.59158 13.5355C5.64452 12.5979 5.11247 11.3261 5.11247 10C5.11247 8.67392 5.64452 7.40215 6.59158 6.46447C7.53863 5.52678 8.82311 5 10.1624 5ZM10.1624 7C9.35885 7 8.58816 7.31607 8.01992 7.87868C7.45169 8.44129 7.13246 9.20435 7.13246 10C7.13246 10.7956 7.45169 11.5587 8.01992 12.1213C8.58816 12.6839 9.35885 13 10.1624 13C10.966 13 11.7367 12.6839 12.305 12.1213C12.8732 11.5587 13.1924 10.7956 13.1924 10C13.1924 9.20435 12.8732 8.44129 12.305 7.87868C11.7367 7.31607 10.966 7 10.1624 7Z" fill="white"/>
</svg>
