<svg width="20" height="18" viewBox="0 0 20 18" fill="none" xmlns="http://www.w3.org/2000/svg">
<path d="M18.0879 9C17.8185 9 17.5788 8.904 17.3688 8.712C17.158 8.52067 17.0358 8.28333 17.0021 8C16.7833 6.45 16.1228 5.129 15.0205 4.037C13.9176 2.94567 12.5834 2.29167 11.0179 2.075C10.7318 2.04167 10.492 1.925 10.2988 1.725C10.1049 1.525 10.0079 1.28333 10.0079 1C10.0079 0.716667 10.1089 0.479 10.3109 0.287C10.5129 0.0956666 10.7486 0.0166666 11.0179 0.05C13.1389 0.283333 14.9485 1.14167 16.4466 2.625C17.9448 4.10833 18.8117 5.9 19.0474 8C19.081 8.26667 19.0009 8.5 18.807 8.7C18.6138 8.9 18.374 9 18.0879 9ZM13.8712 9C13.6523 9 13.4587 8.925 13.2904 8.775C13.1221 8.625 12.9958 8.425 12.9117 8.175C12.777 7.69167 12.5205 7.26233 12.142 6.887C11.763 6.51233 11.3293 6.25833 10.8412 6.125C10.5887 6.04167 10.3867 5.91667 10.2352 5.75C10.0837 5.58333 10.0079 5.38333 10.0079 5.15C10.0079 4.81667 10.1258 4.54567 10.3614 4.337C10.5971 4.129 10.858 4.05833 11.1442 4.125C12.0868 4.34167 12.8992 4.78733 13.5813 5.462C14.2627 6.13733 14.7128 6.94167 14.9316 7.875C14.999 8.15833 14.9232 8.41667 14.7044 8.65C14.4856 8.88333 14.2078 9 13.8712 9ZM18.0374 18C15.8659 18 13.7493 17.5207 11.6875 16.562C9.62513 15.604 7.79873 14.3373 6.20832 12.762C4.61724 11.1873 3.33792 9.379 2.37034 7.337C1.40209 5.29567 0.917969 3.2 0.917969 1.05C0.917969 0.75 1.01897 0.5 1.22097 0.3C1.42297 0.0999999 1.67546 0 1.97846 0H6.06894C6.30461 0 6.51502 0.0749999 6.70019 0.225C6.88535 0.375 6.99477 0.566667 7.02844 0.8L7.68493 4.3C7.7186 4.53333 7.71456 4.74567 7.67281 4.937C7.63039 5.129 7.53343 5.3 7.38193 5.45L4.95795 7.9C5.66494 9.1 6.54869 10.225 7.60918 11.275C8.66968 12.325 9.83959 13.2333 11.1189 14L13.4924 11.65C13.6439 11.5 13.8419 11.3873 14.0863 11.312C14.33 11.2373 14.5697 11.2167 14.8054 11.25L18.2899 11.95C18.5255 12 18.7191 12.1123 18.8706 12.287C19.0221 12.4623 19.0979 12.6667 19.0979 12.9V16.95C19.0979 17.25 18.9969 17.5 18.7949 17.7C18.5929 17.9 18.3404 18 18.0374 18Z" fill="#001C6C"/>
</svg>
