<svg width="22" height="20" viewBox="0 0 22 20" fill="none" xmlns="http://www.w3.org/2000/svg">
<path d="M11.0619 0C5.48669 0 0.961914 4.48 0.961914 10C0.961914 15.52 5.48669 20 11.0619 20C16.637 20 21.1618 15.52 21.1618 10C21.1618 4.48 16.637 0 11.0619 0ZM15.7482 6.8C15.5967 8.38 14.9402 12.22 14.6069 13.99C14.4655 14.74 14.1827 14.99 13.9201 15.02C13.3343 15.07 12.89 14.64 12.3244 14.27C11.4356 13.69 10.9306 13.33 10.0721 12.77C9.07217 12.12 9.71857 11.76 10.2943 11.18C10.4458 11.03 13.0314 8.7 13.0819 8.49C13.0889 8.45819 13.0879 8.42517 13.0791 8.3938C13.0703 8.36244 13.0539 8.33367 13.0314 8.31C12.9708 8.26 12.89 8.28 12.8193 8.29C12.7284 8.31 11.3144 9.24 8.55708 11.08C8.15308 11.35 7.78948 11.49 7.46628 11.48C7.10268 11.47 6.41589 11.28 5.90079 11.11C5.26449 10.91 4.76959 10.8 4.80999 10.45C4.83019 10.27 5.08269 10.09 5.55739 9.9C8.50658 8.63 10.466 7.79 11.4457 7.39C14.2534 6.23 14.8291 6.03 15.2129 6.03C15.2937 6.03 15.4856 6.05 15.6068 6.15C15.7078 6.23 15.7381 6.34 15.7482 6.42C15.7381 6.48 15.7583 6.66 15.7482 6.8Z" fill="white"/>
</svg>
