<svg width="21" height="20" viewBox="0 0 21 20" fill="none" xmlns="http://www.w3.org/2000/svg">
<path d="M17.7724 2.91006C16.8465 1.98399 15.7436 1.24973 14.528 0.750111C13.3124 0.250494 12.0085 -0.00448012 10.6924 5.95696e-05C5.17781 5.95696e-05 0.683339 4.45006 0.683339 9.91006C0.683339 11.6601 1.14794 13.3601 2.01653 14.8601L0.602539 20.0001L5.90501 18.6201C7.3695 19.4101 9.01579 19.8301 10.6924 19.8301C16.207 19.8301 20.7014 15.3801 20.7014 9.92006C20.7014 7.27006 19.6611 4.78006 17.7724 2.91006ZM10.6924 18.1501C9.19759 18.1501 7.7331 17.7501 6.45041 17.0001L6.14741 16.8201L2.99623 17.6401L3.83452 14.6001L3.63252 14.2901C2.80205 12.977 2.36108 11.4593 2.35993 9.91006C2.35993 5.37006 6.09691 1.67006 10.6823 1.67006C12.9043 1.67006 14.995 2.53006 16.5605 4.09006C17.3356 4.85402 17.9499 5.76272 18.3677 6.76348C18.7856 7.76425 18.9986 8.83717 18.9945 9.92006C19.0147 14.4601 15.2778 18.1501 10.6924 18.1501ZM15.2576 11.9901C15.0051 11.8701 13.7729 11.2701 13.5507 11.1801C13.3184 11.1001 13.1568 11.0601 12.9851 11.3001C12.8134 11.5501 12.3387 12.1101 12.1973 12.2701C12.0559 12.4401 11.9044 12.4601 11.6519 12.3301C11.3994 12.2101 10.5914 11.9401 9.64199 11.1001C8.8946 10.4401 8.3997 9.63006 8.2482 9.38006C8.1068 9.13006 8.228 9.00006 8.3593 8.87006C8.4704 8.76006 8.6118 8.58006 8.733 8.44006C8.8542 8.30006 8.9047 8.19006 8.9855 8.03006C9.0663 7.86006 9.0259 7.72006 8.96529 7.60006C8.9047 7.48006 8.3997 6.26006 8.1977 5.76006C7.9957 5.28006 7.7836 5.34006 7.6321 5.33006H7.1473C6.97561 5.33006 6.71301 5.39006 6.48071 5.64006C6.25851 5.89006 5.61211 6.49006 5.61211 7.71006C5.61211 8.93006 6.51101 10.1101 6.63221 10.2701C6.75341 10.4401 8.3997 12.9401 10.9045 14.0101C11.5004 14.2701 11.965 14.4201 12.3286 14.5301C12.9245 14.7201 13.4699 14.6901 13.9042 14.6301C14.389 14.5601 15.3889 14.0301 15.5909 13.4501C15.803 12.8701 15.803 12.3801 15.7323 12.2701C15.6616 12.1601 15.5101 12.1101 15.2576 11.9901Z" fill="white"/>
</svg>
